<?xml version="1.0" encoding="UTF-8"?>
<svg version="1.1" viewBox="0 0 2048 705" width="1574" height="542" xmlns="http://www.w3.org/2000/svg">
<path transform="translate(530,134)" d="m0 0 7 6 7 7-1 4-7 8-13 13h-2l-2 5-17 17-7 8-14 14-7 8-11 11-3 5-10 10-1 22h153l-5-5-14-11-27-14-18-7-26-7-19-3v-1l16-3h28l12 1 9 2 12 2 15 4 14 5 24 10 29 14 12 7 10 6v2l4 2 8 8 8 7 5 6 8 7 49 49-2 5-63 63-8 7-6 5v-22l-2-7-13-13-8-7-54-54-5-3-4-6-7-6-5-5-11-12-3-3-139-1-1-1v-47l4-6 7-7 7-8 8-9 6-7h2l2-4 19-19 7-8 32-32 7-8z" fill="#F65C09"/>
<path transform="translate(243,276)" d="m0 0h2l1 47 7 8 19 19 4 3v2h2l7 8 13 12 7 8 2 1v2l4 2 23 23 6 5 5 6 8 7 10 8 134 1v30l-2 3h-2l-2 4-10 10-6 8h-3l-1 3h-2l-2 5-29 29-7 8-28 28-7 8-9 9-5-2-11-11 1-4 12-12 7-8 16-16 8-10 8-7 37-37 8-10 3-3v-2l-4 1h-14-3-57l-3-1-29-1-8-6-7-6-6-4-4-3-14-1-2-1 7 8 15 10 11 7 18 10 15 6 25 8 9 2v2h-30l-2-1-21-2-27-7-20-7-11-4-15-7-7-3-22-12-6-4-10-8-10-10-6-4-66-66-1-3 2-4 8-7 5-6h2l1-3 5-5h2l2-4 3-1 2-4 30-30 8-7 4-5z" fill="#F65C09"/>
<path transform="translate(460,67)" d="m0 0 5 2 6 7 5 3 4 5v2l4 2 9 10 18 18v2l3 1-1 4-73 73-7 8-29 29-1 13v165h-29l-7-6-8-7-29-29-5-4v-2l-4-2v-66l1-2 3-24 9-31 7-19 5-13 14-29 11-17 10-14 16-17 60-60zm-81 141-10 16-3 5-12 23-8 20-2 9-2 5-3 19-1 1-1 13v14l7 8 35 35h2v-167z" fill="#F65C09"/>
<path transform="translate(519,316)" d="m0 0 37 1 6 4 3 5 6 4 29 29 1 29v22l-2 18-4 23-4 15-9 26-2 5h-2l-1 5-9 19-8 14-5 8-7 11-11 13h-2l-1 3h-2v2l-8 7-55 55h-2l-2 4-12 11-4-1-48-48 1-4 25-25 2-3h2v-2h2l1-3h2l2-4 59-59 3-5 6-4 11-11 1-3v-160zm26 24-4 1v159l4-2 8-12 8-13 8-16 6-15 5-16 4-20 1-23 1-5-2-5-6-4-27-27z" fill="#F65C09"/>
<path transform="translate(262,150)" d="m0 0h95l-6 11-10 19-11 27-3 12-2 6-2 11-1 1-5 35v30l1 13 1 1 1 9v34l-5-5-10-9-43-43-2-3v-31l1-117z" fill="#050302"/>
<path transform="translate(601,360)" d="m0 0 5 4 27 27 7 8 17 16 4 4v139h-95l7-14 6-10 13-30 7-23 4-20 2-24v-22l-2-23-2-7z" fill="#030202"/>
<path transform="translate(1770,298)" d="m0 0h75l17 4 11 7 7 10 2 8v9l-3 9-7 8-5 3v2l10 6 6 7 4 9 1 12-3 11-6 8-10 6-14 4-10 1h-75zm34 24-1 1v24h34l7-3 4-5v-8l-5-6-3-2-8-1zm-1 48v27h41l6-3 3-4v-12l-5-5-5-2-11-1z" fill="#040202"/>
<path transform="translate(989,296)" d="m0 0h19l12 2 14 5 12 8 7 7 9 14 5 13 1 3 1 13-1 11-3 9-4 9-7 11-9 9-14 8-12 4-6 1h-27l-13-3-14-7-10-8-8-10-5-8-4-12-1-6v-19l3-11 7-14 9-11 10-8 10-5 14-4zm7 27-13 4-6 4v2h-2l-6 9-3 7-1 12 2 12 5 10 9 8 8 4 5 1h13l10-4 9-7 5-8 3-14v-12l-4-10-11-12-8-4-7-2z" fill="#040202"/>
<path transform="translate(1483,298)" d="m0 0h32l1 17v29h50v-46h18l16 1v122l-1 1h-32l-1-1v-48h-50v49h-33l-1-5v-118z" fill="#080402"/>
<path transform="translate(1221,298)" d="m0 0h33l1 2v57l1 21 3 8 5 6 9 3h12l6-2 8-7 3-7 1-7 1-74h33l1 57-1 25-4 13-5 10-10 10-12 7-12 3-19 1-16-2-11-4-9-6-8-8-5-8-5-14z" fill="#040302"/>
<path transform="translate(1627,298)" d="m0 0h33l1 74 3 12 7 8 3 2 5 1h17v-2l6-3 6-10 1-5 1-77h32l1 1v82l-4 12-6 11-9 9-10 6-16 4h-27l-13-3-12-7-6-5-8-12-5-16-1-55v-18z" fill="#040202"/>
<path transform="translate(1404,296)" d="m0 0h17l17 3 10 3 9 4-1 6-8 19-4-1-11-4-5-2-6-1h-17l-10 4h-2v10l4 4 16 5 19 4 12 5 10 7 6 7 3 10v12l-3 9-4 6-5 5-5 4-5 3-13 4-5 1h-30l-16-3-13-5-8-5 10-23 1-2 5 2 11 5 7 3 20 2 13-2 4-3 1-8-4-5-9-3-25-6-16-6-10-9-5-10-1-11 2-11 6-10 7-7 12-6 9-2 1-1z" fill="#040202"/>
<path transform="translate(568,151)" d="m0 0h92v92l-5-2-15-9-13-7-21-8-9-3-13-4-18-4-22-3-26-1 6-7z" fill="#030202"/>
<path transform="translate(1144,296)" d="m0 0h14l14 2 18 8 11 9 2 4-7 7-8 7-5 4-4-2-9-7-12-3h-13l-9 3-5 3h-2l-2 4-6 8-3 7v19l4 10 6 8 8 5 8 3h15l13-5 9-8 6 4 10 9 6 5-2 4-10 9-8 5-13 4-5 1h-27l-15-3-14-8-10-8-7-9-6-12-3-10-1-8v-11l2-11 5-13 10-14 9-8 13-7 16-4z" fill="#040302"/>
<path transform="translate(262,467)" d="m0 0 5 2 16 9 17 9 16 6 9 3 10 3 14 4 37 4 18 1-4 5-5 4-40 40h-93z" fill="#040202"/>
<path transform="translate(822,298)" d="m0 0h96v25l-43 1h-19v29h56v25l-1 1h-55v42l-1 1h-29l-4-1z" fill="#080402"/>
</svg>
