<?xml version="1.0" encoding="UTF-8"?>
<svg version="1.1" viewBox="0 0 1017 1050" width="1017" height="1050" xmlns="http://www.w3.org/2000/svg">
<path transform="translate(609,147)" d="m0 0 5 4 7 8 7 7 2 1-2 5-14 14-1 2h-2l-2 4-17 17-7 8-11 11-7 8-13 13-7 8-11 11-7 8-9 9-7 8-8 8-7 8-2 2-1 25-1 5h94l124-1-18-14-18-11-16-9-23-11-25-9-23-6-25-4-9-1v-2l15-2 14-1h27l22 2 31 5 24 6 32 11 35 16 23 12 17 10 15 10 10 9 34 34 2 1v2l4 2 6 6v2h2l4 5 4 3v2l4 2 16 16v2h2v2h2l4 5 4 3v2h2v2h2v2l4 2 8 8 3 4-2 4-40 40-5 4-1 2h-2l-2 4-4 4h-2v2l-12 12-8 7-32 32h-1l-1-37-8-8-5-6-8-7-6-7-8-7-7-7v-2l-4-2-111-111-2-1-194-1v-71l14-15 30-32 12-13 7-8h2l2-4 20-20 7-8 14-14 7-8 12-12 1-2h2l2-4z" fill="#F25909"/>
<path transform="translate(207,347)" d="m0 0h1l1 46 1 22 37 37 3 2v2h2v2h2l7 8 5 4v2l4 2 39 39 2 1v2l4 2 4 4v2l4 2 36 36 8 7 7 6 187 1v44l-14 15-19 19-1 2h-2l-2 4-18 18-7 8-10 10-1 2h-2v2h-2l-2 4-19 19-1 2h-2v2h-2l-2 4-15 15-7 8-17 17-1 2h-2v2h-2l-2 4-3 2-21-21v-2h2v-2h2l2-4 16-16 1-2h2l2-4 24-24 7-8 18-18 7-8 18-18 7-8 12-12 7-8 14-14 1-2h2v-2h-154l-6-3-14-12-10-8-6-5-9-1-18-1 5 5 17 13 11 7 21 13 23 12 26 10 22 7 20 4v1l-5 1h-32l-31-3-26-5-26-7-28-10-30-13-20-10-14-8-19-12-14-10-114-114-1-3 108-108z" fill="#F25909"/>
<path transform="translate(511,50)" d="m0 0 4 2 34 34 7 8 32 32-2 4-20 20-1 2h-2l-2 4h-2v2h-2l-2 4-10 10h-2l-2 4-66 66-6 7h-2l-1 3h-2l-2 4-30 30-1 253h-40l-12-11-13-13-6-5v-2h-2l-39-39-2-1-1-42v-44l4-31 7-34 7-24 7-20 8-20 13-28 13-23 10-17 11-16 11-13 7-8h2v-2l7-6 1-2h2l2-4 42-42 7-8 12-11 2-3h2l2-4zm-113 202-16 23-12 21-10 21-10 27-6 22-4 23-2 22v18l7 8 31 31 8 7 14 14h2l-1-237z" fill="#F15808"/>
<path transform="translate(594,404)" d="m0 0 51 1 8 7 13 12 43 43v71l-4 31-6 28-7 26-12 33-14 29-9 17-10 17-8 12-12 17-6 7-8 7-35 35-8 7-61 61-8 7h-4l-51-51-12-13-7-7 6-7 63-63 2-3h2v-2l7-6 1-2h2v-2h2v-2h2l2-4 68-68 7-8 2-6v-223zm31 33v226h3l13-19 8-13 11-20 11-26 6-18 6-27 3-24v-29l-9-9-5-6-8-7-21-21-4-5-3-2z" fill="#F25909"/>
<path transform="translate(232,169)" d="m0 0h134l-7 14-10 18-10 21-11 29-9 30-5 24-3 21-1 14v42l2 20 4 24v40l-5-4v-2h-2l-14-14v-2h-2l-62-62z"/>
<path transform="translate(710,469)" d="m0 0 5 3 6 7 13 13 5 4 4 5 2 1v2l4 2 1 3h2v2l3 1 7 8 13 13 2 1v2h2l5 5v2l4 2 5 5v195h-134l6-11 12-21 13-27 10-27 7-24 5-25 3-25 1-30-2-30-4-27z"/>
<path transform="translate(664,169)" d="m0 0h129l-1 133-7-4-13-8-18-10-21-10-21-8-35-10-26-5-36-4-25-1 6-7 21-21 8-7 27-27 8-7z" fill="#020000"/>
<path transform="translate(233,615)" d="m0 0 8 4 15 9 16 9 9 5 6 2 25 10 26 8 27 6 30 4 39 2-6 7-3 3h-2v2l-4 4h-2v2h-2v2l-8 7-44 44h-131v-129z" fill="#020100"/>
<path transform="translate(814,928)" d="m0 0h52l16 3 8 5 5 8 1 3v10l-3 7-5 6h-2l4 4 7 6 3 7v13l-4 8-8 6-9 3-6 1h-59zm25 19v17h22l7-2 3-3 1-5-3-5-3-2zm-1 34 1 19h28l6-3 2-4-1-7-4-4-2-1z" fill="#060200"/>
<path transform="translate(245,927)" d="m0 0h20l13 4 10 6 5 5 6 7 5 12 1 4v17l-4 12-6 9-8 8-12 6-16 3h-8l-14-3-14-7-8-8-6-10-3-10v-18l4-12 8-11 9-7 8-4zm8 20-9 3-8 6-5 10v13l4 9 5 6 8 4 4 1h7l9-3 7-6 4-8 1-4v-10l-4-10-7-7-7-3z" fill="#060200"/>
<path transform="translate(605,928)" d="m0 0h25v33l36 1v-34h24v90h-24l-1-35-35-1v36h-25z" fill="#030100"/>
<path transform="translate(416,928)" d="m0 0h25v44l1 14 3 6 6 5 4 1h7l8-4 4-7 1-7 1-52h24v59l-4 13-7 10-10 6-10 3-14 1-16-3-9-5-5-4-6-10-3-9-1-13v-22z" fill="#080300"/>
<path transform="translate(718,928)" d="m0 0h17l1 58 4 8 5 3 4 1h7l7-3 3-1 2-5 1-3 1-57 17-1 8 1v51l-2 14-5 10-7 8-12 6-18 2-15-2-12-6-7-7-5-10-2-7v-59z" fill="#070200"/>
<path transform="translate(544,927)" d="m0 0h20l16 4 7 4-6 16-2 2-14-5-4-1h-12l-7 3-1 6v2l4 2 24 6 14 7 6 7 2 6v10l-3 8-7 8-10 5-16 3-17-1-14-4-11-5 2-6 6-13 5 2 13 5 4 1h17l5-3v-6l-4-3-29-8-10-6-4-5-3-8v-8l3-9 6-8 11-6z" fill="#080300"/>
<path transform="translate(355,927)" d="m0 0h20l13 4 10 6 6 7-12 11-4 3-10-8-9-2-11 1-8 5-6 7-2 6v11l3 8 6 7 7 4 4 1h9l8-3 6-4 4-2 14 13-1 4-9 7-8 4-15 3-17-1-14-5-11-8-7-10-5-13v-20l4-11 9-12 9-7 8-4z" fill="#070200"/>
<path transform="translate(126,928)" d="m0 0h70l1 5-1 14-44 1-1 1v19l13-1h24l3 1v19h-40v31h-25z" fill="#090300"/>
<path transform="translate(224,936)" d="m0 0 2 1-12 12v-3l7-8z" fill="#8C3305"/>
<path transform="translate(232,614)" d="m0 0" fill="#F25909"/>
</svg>
