<?xml version="1.0" encoding="UTF-8"?>
<svg version="1.1" viewBox="0 0 2048 705" width="1574" height="542" xmlns="http://www.w3.org/2000/svg">
<path transform="translate(496,225)" d="m0 0 27 1 3 1 25 4 14 4 23 7 11 4 21 9 14 7 18 10 10 9 29 29 5 4 7 8 17 16 14 14v2h2l-1 4-15 15-5 3-7 8-5 6-3 1-2 3h-2l-2 4-7 8-4 1-1 3-8 7-16 16h-1l-1-58-4-6-8-8-7-8-7-7-7-8-35-35-1-4-4-1-14-16-8-6-4-4v-3l-39 2-93-1 6-7 5-4 7-8 7-7 6-5 5-6 5-5 4-2z" fill="#F45A07"/>
<path transform="translate(223,277)" d="m0 0h1l1 9 1 51 7 8 31 31 7 8 32 32 9 10 7 8 4 3 6 2 127 1-2 4-8 7-29 29h-2l-1 3-2 1h-40l-26-4-27-6-29-9-21-8-26-12-11-6-10-9-15-14-61-61 1-3 13-13 3-2 1-3 8-6 22-22 6-7 8-7z" fill="#F45A07"/>
<path transform="translate(518,332)" d="m0 0 4 2 7 8 21 21 6 4 3 4v29l-3 27-2 5-2 10-3 9-6 16-3 9-2 8-3 28-3 12-2 11-2 5-4 13-4 9-5 6-8 7-74 74-4-2-40-40 6-7 6-5 8-7 13-13h2l2-4 8-7 33-33 6-5 35-35 7-5 2-8v-29l-1-5v-7l1-5v-8-4-64z" fill="#F45A07"/>
<path transform="translate(439,67)" d="m0 0 4 1 41 41-1 4-9 7-9 9-8 7-24 24-8 7-19 19h-3v3h-2l-2 4-8 7h-2l-2 4-8 7-10 10-4 3-1 154-3-3-4-2-9-10-10-8-7-9-8-8-2-3 1-7 2-30 3-16 7-27 6-16 2-9 5-34 5-22 4-15 4-10 8-11 48-48z" fill="#F45A07"/>
<path transform="translate(241,151)" d="m0 0h96l-2 5-13 27-7 20-4 11-6 24-3 17-2 11-1 12-1 29 1 31v40l-7-6-50-50-1-5z" fill="#FEFEFE"/>
<path transform="translate(582,331)" d="m0 0 2 1v2l3 1v2h2l5 5 1 3h2v2l3 1 7 8 33 33 1 13v156h-98l2-5 6-11 8-16 8-20 6-19 5-23 4-25 1-11v-48l-1-12z" fill="#FEFEFE"/>
<path transform="translate(1751,299)" d="m0 0h78l16 4 9 6 6 9 2 6v15l-4 9h-2l-1 4-6 4-1 3 5 2 10 9 5 10v18l-4 8-5 6-12 6-9 2-1 1-10 1h-73l-3-1zm33 23v26h36l5-3 4-5 1-7-4-7-5-3-4-1zm0 48v27h42l5-3 4-6v-8l-4-7-7-3z" fill="#FEFEFE"/>
<path transform="translate(976,296)" d="m0 0 19 1 17 5 11 6 12 12 7 11 4 10-1 2h2l1 5v26l-3 11-2 3h-2l1 3-4 6-7 8-8 7-12 6-7 3-11 2h-25l-14-3-14-7-10-8-8-11-4-7v-4h-2l-4-15 1-18 3-14 6-11 9-10 9-8 12-6 14-4zm1 27-7 1-8 4-6 5-3 3-3 9h-2l-3 13 1 8 4 13 3 6 11 8 7 3 12 1 11-2 10-7 6-7 4-9 1-5v-12l-3-12-3-6-7-6-7-5-9-3z" fill="#FEFEFE"/>
<path transform="translate(1464,299)" d="m0 0h33v46h50v-46h33v123h-11l-8-1h-14v-49h-49l-1 50h-32l-1-1z" fill="#FEFEFE"/>
<path transform="translate(1617,298)" d="m0 0h23l1 65 2 17 5 10 5 3v2l14 1 8-1 2-1 2 1v-2l4-2 4-6 3-10 1-77 34 1v73l-2 12-4 11-6 10-5 6-11 7-7 3-17 3h-15l-18-4-12-6-10-9-6-9-3-9-2-7-1-19v-48l1-14z" fill="#FEFEFE"/>
<path transform="translate(1202,298)" d="m0 0h27l7 1v24l1 52 2 9 6 8 7 3h17l8-5 4-5 3-8 1-78h32l1 3 1 28v35l-1 13-4 16-9 14-10 8-11 5-11 2h-27l-12-3-11-6-7-6-7-9-5-12-2-13z" fill="#FEFEFE"/>
<path transform="translate(1388,296)" d="m0 0h9l18 2 15 5 8 4v3l-9 21-5-1-14-5-10-2h-15l-7 2-3 3h-2l1 3-1 4 2 4 7 4 30 7 4 1v2l6 1 10 6 8 8 4 10v13l-3 9-6 9-9 7-11 5-9 2-14 1-19-1-16-3-12-5-8-4 2-5 9-21 14 7 6 2 7 2 10 2h14l8-4 3-4v-6l-8-6-8-3-23-5-10-3-8-5-9-8-3-6-2-7v-10l4-11 5-7h2l2-4 8-6 7-3h5v-2z" fill="#FEFEFE"/>
<path transform="translate(241,466)" d="m0 0 5 2 24 13 17 8 22 7 19 5 12 2 9 2 10 1 26 1-1 4-14 14-8 7-24 24-4 2h-93z" fill="#FEFEFE"/>
<path transform="translate(548,151)" d="m0 0h92v94l-7-4-9-6-9-5-19-9-14-5-23-7-25-4-39-1 2-5 6-4 7-8 10-8 5-5z" fill="#FEFEFE"/>
<path transform="translate(1127,296)" d="m0 0h10l14 2 9 3 14 7 9 8 1 3-9 9-8 7-4 3-12-9-6-3-5-1h-16l-9 4-7 5-6 10-3 10v14l4 11 7 8v2l5 2 9 4h20l10-5 8-7 5 2 9 8 3 2v2l6 3-2 4-9 8-11 6-7 3-12 2h-26l-13-3-12-6-6-4v-2l-4-2-5-4-4-5-5-9-3-7-3-14v-12l4-17 5-11h2l1-4 6-7h2l2-4 11-7 8-4 6-2 7-2z" fill="#FEFEFE"/>
<path transform="translate(804,298)" d="m0 0h57l37 1 1 4 1 21h-63v28l55 1v25l-3 1h-29l-24-1v44l-33-1v-122z" fill="#FEFEFE"/>
<path transform="translate(467,440)" d="m0 0h26v36l-10 10-8 7-44 44-5 3-34 34-8 7-10 10-7-4v-3l-3-1-5-5-6-5 2-4 32-32 8-7 20-20 6-5 4-5 8-7 19-19 9-7 5-6z" fill="#F45A07"/>
<path transform="translate(499,126)" d="m0 0 4 2 9 9 8 7v3l-13 13h-2v2l-8 7-34 34-8 7-25 25h-3l-1 4-8 6-3 4-1 21h-26v-36l38-38h2l2-4h2v-2l8-7 30-30 10-8z" fill="#F45A07"/>
<path transform="translate(301,349)" d="m0 0 7 6 8 8v2l3 1v2l4 2 16 16 3 2 22 1v25l-5 1h-26l-21-21-6-8-6-7z" fill="#F45A07"/>
<path transform="translate(518,294)" d="m0 0h28l6 4 4 6 19 19 5 6v32l-7-6-3-3v-2l-3-1v-2l-4-2-9-9v-2l-4-2-4-5-5-5-23-1z" fill="#F45A07"/>
<path transform="translate(361,375)" d="m0 0" fill="#F45A07"/>
</svg>
